:FULLY-SPECIFIED
:FORCE-ALL-JOINTS-BE-3DOF
:DEGREES
2141
root -2.57591 15.2132 -0.152963 903.101 6.42332 184.327
lfemur -54.2517 13.0848 -25.0678
ltibia 54.5302 0 0
lfoot 0.112452 22.246 0
ltoes 1.58302 0 0
rfemur -2.38447 -0.317682 22.993
rtibia 67.7567 0 0
rfoot 5.73026 15.8198 0
rtoes -21.9255 0 0
lowerback 10.6351 0.140339 -1.45209
upperback -1.32301 0.306764 3.03604
thorax -7.38807 0.304168 3.97634
lowerneck -5.15173 0.23837 -4.32784
upperneck 4.97267 0.519433 2.3814
head 2.46648 0.255993 1.53916
lclavicle 1.50065e-14 -1.85438e-14 0
lhumerus 49.9621 0.334736 101.278
lradius 19.9017 0 0
lwrist -44.0383 0 0
lhand -32.4041 365.845 0
lfingers 7.12502 0 0
lthumb -5.6388 -324.252 0
rclavicle 1.50065e-14 -1.85438e-14 0
rhumerus -56.2852 19.6148 -91.1258
rradius 110.24 0 0
rwrist -69.6477 0 0
rhand -14.3173 -392.521 0
rfingers 7.12502 0 0
rthumb 11.8214 297.861 0
2142
root -2.56886 15.2093 -0.443952 902.986 6.27529 184.209
lfemur -53.8493 13.087 -25.298
ltibia 54.2731 0 0
lfoot 0.150501 22.9105 0
ltoes 3.40364 0 0
rfemur -1.85915 -0.437321 22.5477
rtibia 68.2602 0 0
rfoot 7.63686 17.1526 0
rtoes -21.5307 0 0
lowerback 10.5609 0.059953 -1.69192
upperback -1.26487 0.16025 3.04546
thorax -7.2827 0.243386 4.14942
lowerneck -5.2253 0.32059 -4.35506
upperneck 4.87451 0.636911 2.30446
head 2.44188 0.310743 1.5223
lclavicle 1.43178e-14 -1.93106e-14 0
lhumerus 51.1105 1.26734 102.296
lradius 17.1242 0 0
lwrist -45.1565 0 0
lhand -32.5548 382.967 0
lfingers 7.12502 0 0
lthumb -5.78435 -307.133 0
rclavicle 1.43178e-14 -1.93106e-14 0
rhumerus -59.6105 18.5981 -92.321
rradius 109.946 0 0
rwrist -70.0744 0 0
rhand -14.8494 -392.898 0
rfingers 7.12502 0 0
rthumb 11.3091 297.442 0
2143
root -2.5618 15.2055 -0.734941 902.871 6.12727 184.092
lfemur -53.4469 13.0892 -25.5282
ltibia 54.0159 0 0
lfoot 0.18855 23.5751 0
ltoes 5.22427 0 0
rfemur -1.33383 -0.556961 22.1025
rtibia 68.7636 0 0
rfoot 9.54346 18.4854 0
rtoes -21.136 0 0
lowerback 10.4867 -0.0204328 -1.93176
upperback -1.20673 0.0137355 3.05488
thorax -7.17732 0.182604 4.32251
lowerneck -5.29888 0.402811 -4.38228
upperneck 4.77636 0.75439 2.22752
head 2.41728 0.365493 1.50544
lclavicle 1.36292e-14 -2.00773e-14 0
lhumerus 52.259 2.19995 103.314
lradius 14.3467 0 0
lwrist -46.2747 0 0
lhand -32.7055 400.089 0
lfingers 7.12502 0 0
lthumb -5.92989 -290.014 0
rclavicle 1.36292e-14 -2.00773e-14 0
rhumerus -62.9357 17.5814 -93.5162
rradius 109.652 0 0
rwrist -70.5012 0 0
rhand -15.3814 -393.275 0
rfingers 7.12502 0 0
rthumb 10.7969 297.023 0
2144
root -2.53873 15.2127 -0.972574 902.588 5.44404 183.72
lfemur -52.3035 12.7563 -25.7142
ltibia 54.3632 0 0
lfoot -0.601033 23.6921 0
ltoes 3.8982 0 0
rfemur -4.00883 -0.858336 21.9091
rtibia 70.0628 0 0
rfoot 8.81317 17.3431 0
rtoes -20.197 0 0
lowerback 10.7139 -0.0405655 -2.28652
upperback -1.14421 -0.09378 2.97569
thorax -7.22004 0.139285 4.46641
lowerneck -5.33574 0.255596 -4.44105
upperneck 5.02678 0.547462 2.29198
head 2.50019 0.259698 1.51997
lclavicle 1.2895e-14 -2.00868e-14 0
lhumerus 51.8198 1.1402 102.492
lradius 15.1412 0 0
lwrist -44.5328 0 0
lhand -32.6112 400.275 0
lfingers 7.12502 0 0
lthumb -5.8388 -289.826 0
rclavicle 1.2895e-14 -2.00868e-14 0
rhumerus -61.6131 17.6205 -93.1753
rradius 110.289 0 0
rwrist -70.1566 0 0
rhand -14.7074 -393.216 0
rfingers 7.12502 0 0
rthumb 11.4454 297.141 0
2145
root -2.51567 15.2198 -1.21021 902.305 4.76081 183.348
lfemur -51.1601 12.4233 -25.9002
ltibia 54.7105 0 0
lfoot -1.39062 23.8091 0
ltoes 2.57213 0 0
rfemur -6.68383 -1.15971 21.7158
rtibia 71.3619 0 0
rfoot 8.08288 16.2008 0
rtoes -19.2581 0 0
lowerback 10.9412 -0.0606982 -2.64128
upperback -1.08168 -0.201295 2.8965
thorax -7.26276 0.0959654 4.61032
lowerneck -5.3726 0.108381 -4.49982
upperneck 5.27719 0.340534 2.35644
head 2.5831 0.153903 1.53449
lclavicle 1.21608e-14 -2.00962e-14 0
lhumerus 51.3805 0.0804405 101.671
lradius 15.9358 0 0
lwrist -42.7908 0 0
lhand -32.5168 400.461 0
lfingers 7.12502 0 0
lthumb -5.74771 -289.638 0
rclavicle 1.21608e-14 -2.00962e-14 0
rhumerus -60.2905 17.6595 -92.8345
rradius 110.927 0 0
rwrist -69.8121 0 0
rhand -14.0333 -393.157 0
rfingers 7.12502 0 0
rthumb 12.0939 297.259 0
2146
root -2.4926 15.227 -1.44784 902.022 4.07758 182.975
lfemur -50.0167 12.0904 -26.0862
ltibia 55.0578 0 0
lfoot -2.1802 23.9261 0
ltoes 1.24606 0 0
rfemur -9.35883 -1.46109 21.5224
rtibia 72.6611 0 0
rfoot 7.35258 15.0586 0
rtoes -18.3191 0 0
lowerback 11.1684 -0.0808308 -2.99604
upperback -1.01916 -0.308811 2.81731
thorax -7.30548 0.0526461 4.75422
lowerneck -5.40946 -0.0388334 -4.55859
upperneck 5.52761 0.133606 2.42089
head 2.66601 0.0481083 1.54902
lclavicle 1.14266e-14 -2.01057e-14 0
lhumerus 50.9413 -0.979314 100.849
lradius 16.7303 0 0
lwrist -41.0489 0 0
lhand -32.4225 400.647 0
lfingers 7.12502 0 0
lthumb -5.65662 -289.45 0
rclavicle 1.14266e-14 -2.01057e-14 0
rhumerus -58.9678 17.6986 -92.4936
rradius 111.564 0 0
rwrist -69.4675 0 0
rhand -13.3593 -393.098 0
rfingers 7.12502 0 0
rthumb 12.7423 297.377 0
2147
root -2.46954 15.2342 -1.68547 901.739 3.39436 182.603
lfemur -48.8733 11.7575 -26.2722
ltibia 55.4052 0 0
lfoot -2.96978 24.0431 0
ltoes -0.08001 0 0
rfemur -12.0338 -1.76246 21.329
rtibia 73.9602 0 0
rfoot 6.62229 13.9163 0
rtoes -17.3801 0 0
lowerback 11.3956 -0.100964 -3.3508
upperback -0.956633 -0.416326 2.73812
thorax -7.3482 0.00932686 4.89813
lowerneck -5.44632 -0.186048 -4.61737
upperneck 5.77802 -0.0733224 2.48535
head 2.74892 -0.0576866 1.56354
lclavicle 1.06924e-14 -2.01151e-14 0
lhumerus 50.502 -2.03907 100.027
lradius 17.5249 0 0
lwrist -39.307 0 0
lhand -32.3281 400.832 0
lfingers 7.12502 0 0
lthumb -5.56553 -289.262 0
rclavicle 1.06924e-14 -2.01151e-14 0
rhumerus -57.6452 17.7377 -92.1528
rradius 112.201 0 0
rwrist -69.1229 0 0
rhand -12.6853 -393.038 0
rfingers 7.12502 0 0
rthumb 13.3908 297.495 0
2148
root -2.44647 15.2413 -1.92311 901.456 2.71113 182.231
lfemur -47.7299 11.4245 -26.4582
ltibia 55.7525 0 0
lfoot -3.75937 24.1601 0
ltoes -1.40608 0 0
rfemur -14.7088 -2.06383 21.1356
rtibia 75.2594 0 0
rfoot 5.892 12.774 0
rtoes -16.4411 0 0
lowerback 11.6229 -0.121096 -3.70556
upperback -0.894108 -0.523842 2.65893
thorax -7.39092 -0.0339924 5.04203
lowerneck -5.48318 -0.333263 -4.67614
upperneck 6.02844 -0.28025 2.54981
head 2.83183 -0.163482 1.57807
lclavicle 9.95819e-15 -2.01246e-14 0
lhumerus 50.0628 -3.09882 99.2057
lradius 18.3194 0 0
lwrist -37.5651 0 0
lhand -32.2338 401.018 0
lfingers 7.12502 0 0
lthumb -5.47444 -289.074 0
rclavicle 9.95819e-15 -2.01246e-14 0
rhumerus -56.3226 17.7767 -91.8119
rradius 112.839 0 0
rwrist -68.7784 0 0
rhand -12.0112 -392.979 0
rfingers 7.12502 0 0
rthumb 14.0393 297.613 0
2149
root -2.42341 15.2485 -2.16074 901.173 2.0279 181.859
lfemur -46.5866 11.0916 -26.6443
ltibia 56.0998 0 0
lfoot -4.54895 24.2771 0
ltoes -2.73215 0 0
rfemur -17.3838 -2.36521 20.9423
rtibia 76.5585 0 0
rfoot 5.16171 11.6317 0
rtoes -15.5022 0 0
lowerback 11.8501 -0.141229 -4.06032
upperback -0.831584 -0.631358 2.57974
thorax -7.43365 -0.0773117 5.18594
lowerneck -5.52003 -0.480478 -4.73491
upperneck 6.27886 -0.487179 2.61427
head 2.91474 -0.269276 1.59259
lclavicle 9.22398e-15 -2.01341e-14 0
lhumerus 49.6235 -4.15858 98.384
lradius 19.114 0 0
lwrist -35.8231 0 0
lhand -32.1395 401.204 0
lfingers 7.12502 0 0
lthumb -5.38335 -288.886 0
rclavicle 9.22398e-15 -2.01341e-14 0
rhumerus -55 17.8158 -91.4711
rradius 113.476 0 0
rwrist -68.4338 0 0
rhand -11.3372 -392.92 0
rfingers 7.12502 0 0
rthumb 14.6878 297.731 0
